<svg width="512" height="512" viewBox="0 0 512 512" fill="none" xmlns="http://www.w3.org/2000/svg">
  <defs>
    <linearGradient id="gold" x1="96" y1="72" x2="412" y2="436" gradientUnits="userSpaceOnUse">
      <stop stop-color="#F0DEB4"/>
      <stop offset="0.48" stop-color="#CDAA6C"/>
      <stop offset="1" stop-color="#9B7340"/>
    </linearGradient>
    <filter id="shadow" x="40" y="40" width="432" height="432" filterUnits="userSpaceOnUse">
      <feDropShadow dx="0" dy="18" stdDeviation="18" flood-color="#000000" flood-opacity="0.28"/>
    </filter>
  </defs>

  <g filter="url(#shadow)">
    <circle cx="256" cy="256" r="176" stroke="url(#gold)" stroke-width="8"/>
    <circle cx="256" cy="256" r="154" stroke="url(#gold)" stroke-opacity="0.7" stroke-width="2"/>

    <g stroke="url(#gold)" stroke-width="10" stroke-linecap="round">
      <path d="M292 122L364 198"/>
      <path d="M356 126L284 202"/>
    </g>

    <g fill="#0F0E0C" stroke="url(#gold)" stroke-width="8">
      <circle cx="286" cy="114" r="20"/>
      <circle cx="372" cy="114" r="20"/>
    </g>

    <path d="M214 146C191 146 172 165 172 188C172 214 192 234 216 238C221 239 227 240 232 240C256 240 276 221 276 196C276 168 251 146 214 146Z" fill="url(#gold)"/>
    <path d="M182 194C182 166 205 142 237 142C244 142 251 143 257 145C248 126 228 114 205 114C172 114 146 138 146 170C146 199 168 223 197 226C190 217 185 206 182 194Z" fill="url(#gold)"/>
    <path d="M191 206C202 220 218 230 238 232C235 244 228 256 218 267C204 282 184 289 166 286C170 268 178 252 191 238C196 233 202 228 209 224C201 220 195 214 191 206Z" fill="url(#gold)"/>
    <path d="M203 282C222 292 245 295 267 290C274 307 272 327 262 344C245 373 211 389 177 386C176 351 190 312 214 292C210 290 206 286 203 282Z" fill="url(#gold)"/>
    <path d="M241 286C259 297 281 301 303 298C309 313 308 330 301 346C288 374 259 394 226 400C220 365 226 323 245 296L241 286Z" fill="url(#gold)"/>

    <path d="M198 177C207 170 217 165 229 165C241 165 251 170 259 177" stroke="#0F0E0C" stroke-width="8" stroke-linecap="round"/>
    <path d="M227 196C235 201 244 201 252 196" stroke="#0F0E0C" stroke-width="6" stroke-linecap="round"/>
    <path d="M207 213C221 221 239 221 253 213" stroke="#0F0E0C" stroke-width="6" stroke-linecap="round"/>

    <path d="M143 315C180 303 225 297 256 297C295 297 337 304 370 316L354 356C326 347 292 342 256 342C221 342 184 347 157 355L143 315Z" fill="#0F0E0C" stroke="url(#gold)" stroke-width="6"/>

    <text x="256" y="328" text-anchor="middle" fill="url(#gold)" font-family="Georgia, 'Times New Roman', serif" font-size="40" font-weight="700" letter-spacing="1.5">
      SOSA BARBER
    </text>
    <text x="256" y="363" text-anchor="middle" fill="url(#gold)" font-family="Georgia, 'Times New Roman', serif" font-size="26" font-weight="700" letter-spacing="2.5">
      COLLECTIVE
    </text>
    <text x="256" y="396" text-anchor="middle" fill="url(#gold)" font-family="Manrope, Arial, sans-serif" font-size="14" font-weight="700" letter-spacing="3.4">
      TRADICION Y ESTILO
    </text>
  </g>
</svg>
